<svg width="131" height="62" viewBox="0 0 131 62" fill="none" xmlns="http://www.w3.org/2000/svg">
<path d="M4.49427 22.6448L11.7802 49.6893L15.6082 49.08L22.5598 26.9683L28.4195 49.8935L32.0367 49.2816L40.9145 22.9979L43.8081 22.1427L44.0877 20.3648L33.5651 20.2357L33.2854 22.0136L37.5152 23.05L31.1572 42.6375L25.6132 20.7241L21.4813 21.2593L14.6304 42.8097L9.206 22.6088L13.1307 21.7663L13.5041 19.9895L1.45812 19.8417L1.22534 21.6202L4.49427 22.6448Z" fill="black"/>
<path d="M56.6121 45.7561L58.4749 37.368L80.3072 15.9507C81.1759 15.1058 82.3655 14.5902 83.6724 14.6027L83.6827 14.6029C86.3026 14.635 88.4004 16.7849 88.3683 19.4048C88.3522 20.7157 87.8059 21.8959 86.9359 22.7439L65.0509 44.0998L56.6121 45.7561ZM59.8268 38.1184L58.5627 43.8644L64.3382 42.73L85.9021 21.6815C86.4998 21.0985 86.8751 20.2875 86.8861 19.3866C86.9082 17.5854 85.466 16.1073 83.6648 16.0852L83.6549 16.0851C82.7576 16.0759 81.9412 16.4298 81.3454 17.0102L59.8268 38.1184ZM88.6926 47.2825L54.7452 46.866L54.7633 45.3835L88.7108 45.8001L88.6926 47.2825ZM82.7829 25.7621L77.1896 20.0297L78.252 18.9931L83.8454 24.7254L82.7829 25.7621Z" fill="black"/>
<path d="M103.998 22.9589L103.712 46.3009L99.7847 47.3544L99.5759 49.0863L110.708 49.2229L110.989 47.3512L106.71 46.5018L106.953 26.6517L122.206 50.0672L125.801 49.3847L126.125 22.9257L130.05 22.0832L130.377 20.3058L119.245 20.1692L118.942 21.9469L123.265 22.9844L123.02 42.9516L108.23 20.0341L100.027 19.9334L99.7477 21.7114L103.998 22.9589Z" fill="black"/>
</svg>
